Simulation
nRows=15
nColumns=15
endheader
time  TH_x TH_y TH_z SC_y  SC_z  SC_x  AC_y  AC_z  AC_x  GH_y  GH_z  GH_yy  EL_x  PS_y
2.6910411985018725  0.000000  0.000000  0.000000  -23.044281857367004  5.484575445659218  -5.062444744351622  56.00676101245984  9.803739878351768  7.0284802288348525  -6.737529952528097  3.0353105940079494  35.819899458814405  15.878728853994899  120.000000
2.7312059925093632  0.000000  0.000000  0.000000  -23.129436110597542  5.51232106375135  -4.922805989469298  56.56892305981866  10.246303536785161  7.390180603185713  -6.768251907404443  0.6682000849636253  38.41372787590987  16.63693691767298  120.000000
2.771370786516854  0.000000  0.000000  0.000000  -23.335379701455317  5.558135889088205  -4.7642223495129  57.06059461567364  10.628780679799117  7.684550858701775  175.35385126343633  1.6047201467874088  -141.3401614373942  17.313841404303776  120.000000
2.8115355805243447  0.000000  0.000000  0.000000  -23.617197507754984  5.617709437641065  -4.610503113988585  57.47091317782366  10.950037795341563  7.914680540950582  176.4895886862545  3.774916170608505  -140.30563143689434  17.878648765887064  120.000000
2.851700374531835  0.000000  0.000000  0.000000  -23.937433490361443  5.688908905462403  -4.471109927263561  57.797520339505404  11.219156582622096  8.086870507469568  178.0465378040125  5.8261546184421595  -139.88671170643474  18.312548015460752  120.000000
2.8918651685393257  0.000000  0.000000  0.000000  -24.27019614298315  5.76876194853884  -4.345289503502808  58.044094613164134  11.449793499576304  8.213331527817775  179.7983108165813  7.7406765538292435  -139.851899442404  18.61140228016741  120.000000
2.9320299625468165  0.000000  0.000000  0.000000  -24.60028603569952  5.8534533085737905  -4.228043726454339  58.21652945859775  11.654788752283142  8.309216498897525  -178.3618390308001  9.503744285130628  -140.0909897555316  18.782458422162033  120.000000
2.972194756554307  0.000000  0.000000  0.000000  -24.917462117947696  5.942400782540229  -4.115556560572935  58.32233514923831  11.84380709252511  8.38483096498191  -176.4966802130723  11.106167924661243  -140.5372651205607  18.840993615378327  120.000000
3.012359550561798  0.000000  0.000000  0.000000  -25.215343850440963  6.038014400057105  -4.008942957544095  58.37037525794245  12.023046489538993  8.444257717200802  -174.65866893151275  12.54500016372606  -141.13263557665098  18.807981275113434  120.000000
3.0525243445692882  0.000000  0.000000  0.000000  -25.489381764505293  6.140773382112263  -3.9123171792800733  58.36829818965721  12.193832531325194  8.49111850117449  -172.88536440677146  13.822634383957032  -141.83191149403655  18.70740703310088  120.000000
3.092689138576779  0.000000  0.000000  0.000000  -25.735232715803868  6.248278124729208  -3.8306192470022675  58.32351855087112  12.35357435898879  8.52875926882789  -171.208119444525  14.943904646447885  -142.5955588533275  18.56395824722967  120.000000
3.1328539325842697  0.000000  0.000000  0.000000  -25.94927783556889  6.357689286019607  -3.7691278469725953  58.243672867582234  12.498281701303332  8.560294794147076  -169.6551362097008  15.914123831264058  -143.38633897387618  18.39995637899282  120.000000
3.1730187265917604  0.000000  0.000000  0.000000  -26.128491522367675  6.466017918337258  -3.733025164656129  58.136051339865716  12.624122520913742  8.588443190211057  -168.25043820914837  16.737743376918562  -144.1709117524775  18.23297319893446  120.000000
3.2131835205992507  0.000000  0.000000  0.000000  -26.270542923087262  6.570297049095205  -3.7266278773728088  58.00726101527159  12.727678351411646  8.61581050588948  -167.01196745618597  17.417991454877328  -144.9214937631492  18.0743782925763  120.000000
3.2533483146067415  0.000000  0.000000  0.000000  -26.373796352938168  6.667996109831363  -3.753667011668182  57.86317211118514  12.805775850429422  8.644604810327237  -165.95178166439413  17.957223694340282  -145.6160151086819  17.929616513297628  120.000000
